<?xml version="1.0" encoding="UTF-8" standalone="no"?>
<!-- Created with Inkscape (http://www.inkscape.org/) -->

<svg
   width="256mm"
   height="256mm"
   viewBox="0 0 256 256"
   version="1.1"
   id="svg1"
   sodipodi:docname="loop-single.svg"
   inkscape:version="1.4.3 (0d15f75, 2025-12-25)"
   xmlns:inkscape="http://www.inkscape.org/namespaces/inkscape"
   xmlns:sodipodi="http://sodipodi.sourceforge.net/DTD/sodipodi-0.dtd"
   xmlns="http://www.w3.org/2000/svg"
   xmlns:svg="http://www.w3.org/2000/svg">
  <sodipodi:namedview
     id="namedview1"
     pagecolor="#ffffff"
     bordercolor="#000000"
     borderopacity="0.25"
     inkscape:showpageshadow="2"
     inkscape:pageopacity="0.0"
     inkscape:pagecheckerboard="0"
     inkscape:deskcolor="#d1d1d1"
     inkscape:document-units="mm"
     showguides="true"
     inkscape:zoom="0.44772561"
     inkscape:cx="479.08807"
     inkscape:cy="471.27078"
     inkscape:window-width="1440"
     inkscape:window-height="847"
     inkscape:window-x="0"
     inkscape:window-y="25"
     inkscape:window-maximized="1"
     inkscape:current-layer="layer1">
    <sodipodi:guide
       position="0,255.99999"
       orientation="0,967.55906"
       id="guide1"
       inkscape:locked="false" />
    <sodipodi:guide
       position="255.99999,255.99999"
       orientation="967.55906,0"
       id="guide2"
       inkscape:locked="false" />
    <sodipodi:guide
       position="255.99999,0"
       orientation="0,-967.55906"
       id="guide3"
       inkscape:locked="false" />
    <sodipodi:guide
       position="0,0"
       orientation="-967.55906,0"
       id="guide4"
       inkscape:locked="false" />
    <sodipodi:guide
       position="128,128"
       orientation="-1,0"
       id="guide5"
       inkscape:locked="false"
       inkscape:label=""
       inkscape:color="rgb(0,134,229)" />
    <sodipodi:guide
       position="128,128"
       orientation="0,1"
       id="guide6"
       inkscape:locked="false"
       inkscape:label=""
       inkscape:color="rgb(0,134,229)" />
  </sodipodi:namedview>
  <defs
     id="defs1" />
  <g
     inkscape:label="Layer 1"
     inkscape:groupmode="layer"
     id="layer1">
    <circle
       style="fill:#008080;stroke-width:0.264583"
       id="path6"
       cx="128"
       cy="127.99999"
       r="127.99999" />
    <path
       style="fill:#f9f9f9;stroke-width:0.264583"
       id="path7"
       d="m 78.977558,78.706815 c 5.972278,-4.80337 12.468849,-8.920268 18.984195,-12.938678 6.062347,-3.585435 12.379387,-6.809732 19.123707,-8.890309 1.21041,-0.29373 2.49419,-0.742897 3.7641,-0.515525 0.23443,0.04197 0.87683,0.361199 0.67452,0.235548 -3.83831,-2.383914 -3.50128,-2.146509 -2.38976,-1.199073 0.92015,1.225489 1.15149,2.802429 1.41884,4.271809 1.30273,9.549601 1.252,19.243431 1.42844,28.863641 0.1462,13.767082 0.41329,27.555682 -0.56072,41.301652 -0.15007,2.11783 -0.37495,4.22971 -0.56242,6.34456 -0.86264,6.66129 -1.48443,13.52128 -3.85267,19.86184 -0.3673,0.74806 -0.55231,1.32156 -1.16014,1.8966 -1.52933,1.44682 -5.59182,2.82647 -7.4437,3.59827 -8.09595,3.26183 -16.239763,6.39608 -24.308031,9.72918 -3.139847,1.33602 -6.29622,2.71719 -9.178652,4.56179 -1.920703,1.32488 3.232163,2.89684 3.240574,2.90107 0.117068,0.0589 0.260829,-0.0258 0.391311,-0.038 0.15203,-0.0142 0.304147,-0.0274 0.456219,-0.0411 1.681202,-0.45218 3.075154,-1.69192 4.510275,-2.6224 1.066488,-0.69148 2.140302,-1.37158 3.210451,-2.05737 12.351322,-7.70908 25.448743,-14.27916 39.332823,-18.7532 3.59418,-1.1582 7.26614,-2.05943 10.89921,-3.08915 17.81392,-4.36232 36.11214,-6.07586 54.39063,-6.87381 3.24868,-0.19586 6.49749,-0.13112 9.74294,0.0467 0,0 -3.0379,-2.22468 -3.0379,-2.22468 v 0 c -3.1444,-0.0624 -6.28877,-0.0265 -9.42688,0.22245 -18.11799,1.13949 -36.25106,2.97886 -53.92835,7.28086 -3.64886,1.02688 -7.33504,1.92939 -10.9466,3.08065 -14.03991,4.47553 -27.284843,11.03708 -40.026314,18.37225 -1.122442,0.65386 -2.247297,1.30359 -3.367328,1.96156 -1.438217,0.84489 -2.884718,2.04067 -4.562277,2.35394 -0.149314,0.005 -0.298669,0.0193 -0.447942,0.0136 -0.115829,-0.004 -0.440819,-0.10918 -0.34494,-0.044 1.019316,0.69251 2.113667,1.26887 3.143634,1.94543 0.09243,0.0607 -0.836255,-0.25238 0.08647,-0.31329 2.732317,-1.93102 5.800008,-3.33807 8.844621,-4.69322 8.032284,-3.44422 16.172206,-6.59978 24.342796,-9.69886 1.9564,-0.75764 6.20501,-2.07136 7.76814,-3.63395 0.60715,-0.60695 0.81047,-1.26296 1.16077,-2.03243 2.18524,-6.48897 2.63844,-13.44085 3.4299,-20.1931 0.16156,-2.13221 0.3588,-4.26202 0.48469,-6.39664 0.81221,-13.77155 0.49777,-27.5715 0.49447,-41.35716 -0.0405,-9.520242 0.20249,-19.09533 -0.74116,-28.579195 -0.21969,-1.534065 -0.4456,-3.104317 -1.24711,-4.461082 -2.83882,-3.289035 -5.32895,-3.199355 -8.79842,-2.144006 -6.64933,2.252493 -12.86645,5.572379 -18.891573,9.147842 C 88.502005,67.974537 81.973223,72.131461 75.659,76.597041 Z" />
  </g>
</svg>
