<?xml version="1.0" encoding="UTF-8" standalone="no"?>
<!-- Created with Inkscape (http://www.inkscape.org/) -->

<svg
   width="256mm"
   height="256mm"
   viewBox="0 0 256 256"
   version="1.1"
   id="svg1"
   inkscape:version="1.4.3 (0d15f75, 2025-12-25)"
   sodipodi:docname="loop-off.svg"
   xmlns:inkscape="http://www.inkscape.org/namespaces/inkscape"
   xmlns:sodipodi="http://sodipodi.sourceforge.net/DTD/sodipodi-0.dtd"
   xmlns="http://www.w3.org/2000/svg"
   xmlns:svg="http://www.w3.org/2000/svg">
  <sodipodi:namedview
     id="namedview1"
     pagecolor="#ffffff"
     bordercolor="#000000"
     borderopacity="0.25"
     inkscape:showpageshadow="2"
     inkscape:pageopacity="0.0"
     inkscape:pagecheckerboard="0"
     inkscape:deskcolor="#d1d1d1"
     inkscape:document-units="mm"
     showguides="true"
     inkscape:zoom="0.49683683"
     inkscape:cx="409.59122"
     inkscape:cy="416.63578"
     inkscape:window-width="1440"
     inkscape:window-height="847"
     inkscape:window-x="0"
     inkscape:window-y="25"
     inkscape:window-maximized="1"
     inkscape:current-layer="layer1">
    <sodipodi:guide
       position="0,255.99999"
       orientation="0,967.55906"
       id="guide1"
       inkscape:locked="false" />
    <sodipodi:guide
       position="255.99999,255.99999"
       orientation="967.55906,0"
       id="guide2"
       inkscape:locked="false" />
    <sodipodi:guide
       position="255.99999,0"
       orientation="0,-967.55906"
       id="guide3"
       inkscape:locked="false" />
    <sodipodi:guide
       position="0,0"
       orientation="-967.55906,0"
       id="guide4"
       inkscape:locked="false" />
    <sodipodi:guide
       position="128,128"
       orientation="-1,0"
       id="guide5"
       inkscape:locked="false"
       inkscape:label=""
       inkscape:color="rgb(0,134,229)" />
    <sodipodi:guide
       position="128,128"
       orientation="0,-1"
       id="guide6"
       inkscape:locked="false" />
  </sodipodi:namedview>
  <defs
     id="defs1" />
  <g
     inkscape:label="Layer 1"
     inkscape:groupmode="layer"
     id="layer1">
    <circle
       style="fill:#008080;stroke-width:0.264583"
       id="path6"
       cx="128"
       cy="127.99999"
       r="127.99999" />
    <path
       style="fill:#f9f9f9;stroke-width:0.264583"
       id="path7"
       d="m 48.248575,100.03421 c -0.235427,1.07347 -0.186423,0.98974 -0.656932,2.25182 -0.497541,1.3346 -1.698156,4.1781 -2.165085,5.30714 -2.109266,5.10021 -1.317231,3.16696 -3.494286,8.61946 -2.868893,7.59098 -5.55236,15.31432 -7.181133,23.28195 -0.241974,1.18369 -0.413149,2.38075 -0.619723,3.57112 -0.417409,3.26903 -1.030316,6.8352 0.302572,9.99933 0.741442,1.7601 1.142821,1.86851 2.512222,3.17857 1.768054,1.01217 3.470812,2.14806 5.304163,3.0365 1.352132,0.65524 4.589306,1.29203 5.969812,1.50046 2.31457,0.34945 4.846259,0.52693 7.185792,0.46644 1.202314,-0.0311 2.398673,-0.1802 3.598011,-0.27031 4.456115,-0.57397 8.760298,-2.04115 12.159673,-5.08486 2.09274,-1.87378 2.667423,-3.00371 4.255674,-5.30536 3.994164,-7.05795 5.239954,-14.82992 5.976192,-22.7862 0.203268,-4.51851 0.02535,-9.20977 -1.965921,-13.37153 -1.126212,-2.35378 -1.822619,-2.90952 -3.491597,-4.85342 -0.730936,-0.60047 -1.41972,-1.25627 -2.192806,-1.80139 -1.787321,-1.2603 -6.98006,-3.81814 -7.99288,-4.271 -2.019644,-0.90303 -4.576725,-1.22487 -6.751177,-1.56716 -2.654401,-0.28562 -5.369856,-0.68849 -7.960672,0.12549 -0.893675,0.46461 -0.490993,0.19502 -1.219261,0.79176 0,0 3.320695,2.08504 3.320695,2.08504 v 0 c 0.658831,-0.51667 0.292188,-0.28247 1.1126,-0.68237 2.525958,-0.72613 5.167373,-0.34658 7.740668,-0.0716 1.72879,0.27809 2.542757,0.36367 4.268899,0.83862 0.798888,0.21982 1.539578,0.74988 2.36814,0.75552 0.337452,0.002 -1.003163,-0.86072 -0.686509,-0.74406 1.646967,0.60675 3.298962,2.07489 4.642159,3.12753 1.675749,1.87414 2.417739,2.45734 3.565255,4.74516 2.058408,4.10387 2.283166,8.77544 2.124139,13.2694 -0.112316,1.30235 -0.184047,2.60884 -0.336945,3.90705 -0.766257,6.50617 -2.337019,12.96075 -5.602747,18.68961 -1.583664,2.26907 -2.134807,3.35224 -4.215395,5.19163 -3.369643,2.97899 -7.617296,4.39026 -12.010758,4.94216 -1.190662,0.0819 -2.378704,0.22402 -3.571983,0.24576 -2.338604,0.0426 -4.874633,-0.15835 -7.182342,-0.54266 -1.090239,-0.18157 -2.175399,-0.4069 -3.240849,-0.70084 -0.934078,-0.2577 -1.788084,-0.81131 -2.746918,-0.95111 -0.414279,-0.0604 0.694132,0.46828 1.041196,0.70241 -1.387207,-1.20859 -1.802778,-1.30834 -2.587045,-2.99335 -1.442725,-3.09971 -0.902785,-6.68276 -0.552834,-9.9368 0.185039,-1.19424 0.332904,-2.39485 0.555115,-3.58274 1.493834,-7.98576 4.11622,-15.72973 7.064123,-23.2804 2.028844,-4.86228 1.612405,-3.96452 3.662733,-8.5155 0.178041,-0.39519 2.03363,-4.42559 2.374003,-5.21605 0.538655,-1.25093 0.489955,-1.17216 0.814118,-2.23416 z" />
    <path
       style="fill:#f9f9f9;stroke-width:0.264583"
       id="path8"
       d="m 93.343155,145.10285 c -0.17485,-5.11906 0.200403,-10.28786 1.351198,-15.28844 0.363646,-1.58016 0.857244,-3.12757 1.285869,-4.69135 2.664825,-7.71828 6.889118,-14.87392 12.891158,-20.47152 0.98591,-0.91948 2.07061,-1.72696 3.10592,-2.59044 3.43694,-2.248102 7.80001,-5.297743 12.18953,-4.697398 0.52217,0.07142 1.01311,0.290965 1.51966,0.436446 0.41514,0.23831 1.70561,0.846646 1.24541,0.714931 -0.77905,-0.222975 -1.40888,-1.021956 -2.21872,-0.993505 -0.45441,0.01595 0.60804,0.677682 0.88216,1.04046 0.78725,1.04189 1.37322,2.198836 1.94242,3.366816 0.43197,0.88199 0.80281,1.79137 1.19707,2.69033 0,0 3.53881,1.61944 3.53881,1.61944 v 0 c -0.41297,-0.90539 -0.78881,-1.82656 -1.23148,-2.71832 -2.07755,-4.347747 -3.39576,-5.780702 -8.37745,-8.031898 -0.51775,-0.113136 -1.02504,-0.296305 -1.55325,-0.339408 -4.42855,-0.361376 -8.67117,2.720872 -12.1034,5.058506 -1.02732,0.88256 -2.10337,1.71138 -3.08196,2.64769 -5.960763,5.70326 -10.19783,12.89979 -12.931433,20.64243 -0.447921,1.56424 -0.956736,3.11231 -1.343763,4.69271 -1.212163,4.94977 -1.665881,10.0505 -1.801789,15.13222 z" />
    <path
       style="fill:#f9f9f9;stroke-width:0.264583"
       id="path9"
       d="m 96.220318,110.95382 c 3.868622,1.66756 6.258832,3.18817 8.660602,4.61007 2.49619,1.56871 1.32374,0.81262 3.52273,2.25991 0,0 3.5096,1.37028 3.5096,1.37028 v 0 c -2.2644,-1.48197 -1.06144,-0.70843 -3.61339,-2.31358 -3.24971,-1.92194 -3.8713,-2.29856 -7.97645,-4.65332 -2.044826,-1.17293 -4.129399,-2.38186 -6.300062,-3.31454 -0.311803,-0.13397 -0.641091,-0.22291 -0.961636,-0.33436 z" />
    <path
       style="fill:#f9f9f9;stroke-width:0.264583"
       id="path10"
       d="m 163.64836,159.67776 c -0.0904,-3.71805 -0.12327,-7.43724 -0.0664,-11.15586 0.0462,-7.2782 1.61777,-14.36904 3.47655,-21.36364 1.86681,-5.74704 3.32728,-11.75212 6.17725,-17.12583 0.44814,-0.84498 0.97778,-1.64415 1.46667,-2.46623 2.875,-4.17946 7.06256,-7.10193 11.62286,-9.21116 1.04163,-0.481774 2.12075,-0.877959 3.18112,-1.316937 4.70112,-1.632124 9.62913,-3.185279 14.66231,-3.215272 0.66536,-0.004 1.32811,0.08365 1.99216,0.125476 0.53816,0.103984 1.08792,0.159808 1.6145,0.311954 0.4247,0.122709 1.59119,0.755923 1.22489,0.508429 -0.76056,-0.513868 -1.57104,-0.964385 -2.41917,-1.31535 -0.26074,-0.107894 0.43533,0.362281 0.62371,0.572371 0.16024,0.17871 0.27756,0.391692 0.41633,0.587536 0,0 3.57784,1.571215 3.57784,1.571215 v 0 c -1.62566,-2.739406 -5.02183,-4.057258 -8.06565,-4.457435 -0.65938,-0.01992 -1.31882,-0.08134 -1.97816,-0.05977 -5.02444,0.164404 -9.92417,1.732232 -14.62009,3.385571 -1.07026,0.444199 -2.15909,0.846072 -3.21078,1.332601 -4.62547,2.139812 -8.88799,5.091811 -11.77636,9.356131 -0.48667,0.83658 -1.01542,1.65006 -1.46002,2.50975 -2.76483,5.34616 -4.22982,11.54483 -6.10919,17.23528 -1.87181,6.99959 -3.5218,14.08207 -3.65167,21.36745 -0.11242,3.67707 -0.1076,7.35508 -0.19376,11.03272 z" />
    <path
       style="fill:#f9f9f9;stroke-width:0.264583"
       id="path11"
       d="m 154.7797,115.83434 c 5.84518,2.65045 11.49994,5.69275 17.2324,8.57353 5.97514,2.99177 11.99696,5.88807 17.97413,8.87508 0.41381,0.20628 0.82761,0.41256 1.24141,0.61884 0,0 -2.9944,-2.3924 -2.9944,-2.3924 v 0 c -0.39744,-0.19351 -0.79489,-0.38702 -1.19234,-0.58052 -5.90116,-2.89348 -11.84063,-5.70846 -17.71006,-8.66698 -5.88124,-2.96666 -11.6742,-6.12026 -17.67066,-8.85109 z" />
  </g>
</svg>
